<?xml version="1.0" standalone="no"?>
<!DOCTYPE svg PUBLIC "-//W3C//DTD SVG 20010904//EN"
 "http://www.w3.org/TR/2001/REC-SVG-20010904/DTD/svg10.dtd">
<svg version="1.0" xmlns="http://www.w3.org/2000/svg"
 width="800.000000pt" height="800.000000pt" viewBox="0 0 800.000000 800.000000"
 preserveAspectRatio="xMidYMid meet">
<metadata>
Created by potrace 1.14, written by Peter Selinger 2001-2017
</metadata>
<g transform="translate(0.000000,800.000000) scale(0.100000,-0.100000)"
fill="#000000" stroke="none">
<path d="M6069 5796 c-2 -2 -40 -6 -83 -10 -44 -4 -82 -8 -85 -10 -3 -2 -28
-7 -55 -10 -27 -4 -52 -9 -56 -11 -4 -2 -18 -6 -32 -9 -39 -7 -211 -67 -225
-78 -7 -6 -13 -8 -13 -4 0 3 -23 -8 -50 -24 -28 -17 -53 -30 -56 -30 -16 0
-137 -92 -199 -151 -187 -178 -282 -414 -283 -704 0 -320 114 -558 354 -736
77 -57 98 -70 224 -131 131 -64 181 -82 460 -173 300 -97 358 -119 464 -174
160 -82 236 -183 237 -315 2 -204 -139 -325 -383 -331 -108 -3 -158 5 -235 40
-53 25 -153 113 -153 135 0 8 -6 21 -14 29 -15 17 -56 149 -56 181 0 7 -158
10 -455 10 l-456 0 6 -57 c3 -32 8 -69 10 -83 3 -14 8 -43 11 -65 9 -60 60
-201 100 -275 118 -215 316 -383 572 -485 91 -36 241 -78 318 -89 22 -4 51 -9
64 -11 34 -7 180 -17 262 -19 91 -2 351 19 368 29 4 2 22 7 41 10 77 13 194
54 299 103 189 89 348 229 449 395 107 178 151 346 147 567 -5 253 -81 434
-251 603 -159 157 -360 255 -860 422 -93 31 -179 60 -190 65 -11 5 -49 21 -85
35 -146 60 -270 148 -307 220 -77 149 -23 344 115 414 66 33 112 43 198 43 84
0 124 -8 199 -40 103 -44 182 -146 207 -268 l11 -54 461 2 c333 2 460 6 459
14 -1 6 -4 36 -7 65 -15 175 -95 381 -200 517 -171 222 -460 379 -789 426 -27
4 -59 10 -70 12 -26 6 -382 15 -388 10z"/>
<path d="M430 3995 l0 -1755 428 0 427 0 0 1050 c0 907 2 1046 14 1018 26 -61
30 -73 91 -238 79 -214 101 -271 111 -295 5 -11 72 -191 149 -400 77 -209 145
-389 150 -400 4 -11 48 -126 95 -255 48 -129 102 -273 120 -320 18 -47 38
-102 46 -122 l13 -38 346 0 347 0 42 118 c23 64 46 126 51 137 5 11 48 126 96
255 47 129 92 249 100 267 8 17 14 34 14 38 0 4 11 34 24 68 13 34 47 123 74
197 28 74 91 243 140 375 49 132 123 329 163 439 l74 198 3 -1046 2 -1046 428
0 427 0 0 1753 0 1752 -501 3 -501 2 -12 -27 c-15 -31 -103 -252 -133 -328
-10 -27 -23 -59 -28 -70 -28 -61 -370 -923 -370 -933 0 -7 -4 -12 -8 -12 -5 0
-9 -6 -9 -12 -1 -11 -238 -609 -263 -663 -5 -11 -37 -90 -70 -175 -34 -85 -68
-166 -75 -180 l-13 -25 -12 30 c-6 17 -33 84 -60 150 -26 66 -69 172 -94 235
-26 63 -51 124 -56 135 -5 11 -28 67 -50 125 -23 58 -48 119 -55 135 -7 17
-26 64 -43 105 -64 162 -164 407 -178 437 -8 17 -14 34 -14 37 0 3 -11 30 -25
60 -14 30 -25 59 -25 64 0 5 -6 22 -14 38 -8 16 -61 146 -119 289 -96 238
-113 280 -138 340 -4 11 -18 45 -30 75 -12 30 -27 69 -35 85 -7 17 -17 43 -23
58 l-11 27 -505 0 -505 0 0 -1755z"/>
</g>
</svg>
